<svg xmlns="http://www.w3.org/2000/svg" xmlns:xlink="http://www.w3.org/1999/xlink" id="&#x421;&#x43B;&#x43E;&#x439;_1" x="0px" y="0px" viewBox="0 0 50 50" style="enable-background:new 0 0 50 50;" xml:space="preserve">
<style type="text/css">
	.st0{fill-rule:evenodd;clip-rule:evenodd;fill:url(#SVGID_1_);}
	.st1{fill-rule:evenodd;clip-rule:evenodd;fill:none;stroke:#FFFFFF;stroke-width:0.25;stroke-miterlimit:22.9256;}
	.st2{fill-rule:evenodd;clip-rule:evenodd;fill:url(#SVGID_2_);}
	.st3{fill-rule:evenodd;clip-rule:evenodd;fill:#6E0C00;}
	.st4{fill-rule:evenodd;clip-rule:evenodd;fill:#E2000F;}
</style>
<g>
	
		<radialGradient id="SVGID_1_" cx="24.9018" cy="20.4746" r="25.2046" gradientTransform="matrix(0.9719 0.2353 -0.2261 0.934 5.3281 -4.5078)" gradientUnits="userSpaceOnUse">
		<stop offset="0" style="stop-color:#8EB5E1"></stop>
		<stop offset="0.1278" style="stop-color:#89AEDB"></stop>
		<stop offset="0.3107" style="stop-color:#7B9BCB"></stop>
		<stop offset="0.5268" style="stop-color:#637CB0"></stop>
		<stop offset="0.7662" style="stop-color:#43528A"></stop>
		<stop offset="1" style="stop-color:#1E2160"></stop>
	</radialGradient>
	<ellipse class="st0" cx="25.05" cy="25.19" rx="22.52" ry="21.64"></ellipse>
	<path class="st1" d="M24.9,2.36c-3.48,5.83-5.05,16-4.61,30.5c0.28,9.12,1.8,14.19,4.19,14.39 M7.63,39.44   c3.88,1.41,10.22,2.23,17.79,1.97c5.55,0.33,11.37-0.31,16.72-1.89 M3.71,32.56c3.06,2.31,10.28,3.33,21.65,3.08   c12.02-0.06,19.25-1.19,21.01-3.14 M2.08,25.36c2.22,2.28,10.25,3.5,23.76,3.49c10.56,0.05,17.81-1.32,21.58-3.89   c0.09-0.06,0.5-0.41,0.59-0.48 M3.18,18.27c1.83,1.82,9.18,2.93,22.06,3.35c12.71-0.34,19.72-1.91,20.79-4.17   c0.05-0.11,0.15-0.42,0.17-0.52 M6.97,11.53c1.86,1.84,8.01,2.76,18.44,2.76c10.29-0.45,15.89-1.88,16.63-3.85 M12.16,6.91   c0.7,1.43,4.9,2.09,12.74,2.23c7.38-0.29,11.44-1.34,12.06-2.76 M17.23,4.43c5.14,1.44,10.28,1.45,15.41,0.02 M24.63,2.84   c9.72,2.39,16.86,9.25,18.73,20.49c1.93,11.6-3.96,19.74-13.02,23.21 M24.54,2.99c-6.07,2.52-11.48,9.55-12.8,21.63   c-1.43,13.07,3.9,20.68,10.54,22.37 M17.88,45.98c3.44,0.5,9.41,0.67,13.11,0.28 M12.81,43.85c7.29,1.2,15.8,1.37,23.86,0.19    M26.67,3.09c0.08,0.02,0.52,0.24,0.6,0.26c11.34,3.15,18.39,10,19.63,20.48c0.88,7.45-2.97,14.45-8.14,18.68 M24.88,2.9   c6.12,2.41,11.56,9.57,13.1,21.63c1.63,12.79-2.47,20.2-9.04,21.94c-0.13,0.03-2.11,0.71-1.46,0.64 M24.95,2.71   c3.58,5.77,4.81,15.7,4.63,30.2c-0.11,9.13-1.67,14.02-4.05,14.27 M22.72,3.21C11.3,6.52,3.82,13.51,2.81,24.09   C1.98,32.71,6.66,40.26,13.14,43.9 M24.54,2.99c-9.68,2.56-16.53,9.26-18.2,20.52c-1.72,11.63,3.17,19.23,12.3,22.54"></path>
	<linearGradient id="SVGID_2_" gradientUnits="userSpaceOnUse" x1="26.0408" y1="27.1847" x2="33.6048" y2="11.2196">
		<stop offset="0" style="stop-color:#FCE900"></stop>
		<stop offset="0.29" style="stop-color:#F8E209"></stop>
		<stop offset="0.7616" style="stop-color:#EBD021"></stop>
		<stop offset="1" style="stop-color:#E4C530"></stop>
	</linearGradient>
	<path class="st2" d="M38.05,33.66c0.04-0.44,0.1-0.95-0.21-1.3l-0.59,0.79c-0.44,0.83-1.5,0.65-1.61,1.54   c-0.04,0.35,0.1,0.53-0.03,0.85c-0.27,0.68-0.55,0.14-0.52,1.37c0.02,0.95,0.99,0.31,1.04,0.27l1.28-2.33   c0.12-0.25,0.14-0.42,0.25-0.64l0.24-0.42C38.2,33.45,37.85,33.92,38.05,33.66L38.05,33.66z M23.03,33.51   c0.08-0.11,0.07-0.19,0.18-0.33c0.15-0.22,0.64-0.44,0.28-1.09c-0.39-0.7-0.17-0.53-0.14-0.74c0.02-0.17-0.15-0.51-0.25-0.7   c-0.44-0.86-0.13-0.7-0.81-1.41c-0.81-0.85-0.29-0.13-0.93-1.2c0.62-0.76,0-0.88,0.48-1.17c-0.14-0.37,0.12-0.57-0.2-0.89   l-0.31-0.27c-0.17-0.09-0.26-0.04-0.46-0.01c-1.45,0.23-0.62-0.61-1.34-0.84c-0.54-0.18-1.07,0.05-1.53,0.19   c-0.23,0.07-0.21,0.06-0.43,0.16c-1.01,0.46-0.98-0.19-1.92,0.06l-0.81,0.21c-0.28-0.15-0.53-0.33-1.75-1.67   c-0.34-0.44-0.87-1.21-0.93-1.84c-0.14-1.43,0.76-1.73,0.59-3.63c0.68-1.88,2.11-2.67,2.37-2.73c0.15-0.25,0.51-0.29,0.72-0.63   c0.15-0.23,0.05-0.24,0.15-0.5c0.24-0.6,0.85-0.77,1.09-0.91c0.27-0.16,0.41-0.45,0.65-0.69c0.38,0.1,0.02,0.03,0.23,0.13   c0.26,0.13,0.7,0.1,1.01,0.1c0.72-0.66,2.26-0.59,3.26-0.61c0.6-0.01,0.3-0.14,1,0.01c-0.47,0.55-0.05,0.21-0.1,0.57   c-0.03,0.21-0.3,0.3-0.38,0.46l0.38,0.2c0.4,0.27,0.97,0.14,1.32,0.38c0.36,0.25,0.01,0.32,0.71,0.46   c0.42,0.09,0.47,0.25,0.83,0.33c0.55-0.29,0.15-0.27,0.33-0.74c0.47-0.31,0.68-0.29,1.14-0.03l1.96,0.5   c0.46,0.08,0.29-0.02,0.62-0.14c0.6-0.23,0.73,0.31,1.33,0.03c0.21-0.19,0.25-0.61,0.33-0.94c0.15-0.58-0.16-0.6,0.01-1.03   c-0.09,0.01-0.47,0.05-0.53,0.06c-0.44,0.14-0.23,0.33-0.84,0.03c-0.43-0.21-0.43-0.03-0.46-0.01c-0.29,0.13-0.18,0.22-0.94-0.12   c-0.42-0.19-0.14-0.38-0.71-0.49l0.26-0.24c-0.44-0.01-0.29-0.13-0.16-0.5c-0.28-0.1-0.45-0.16-0.75-0.04l-0.48,0.16   c0.19,0.32,0.36,0.41,0.63,0.66l-0.34,0.22c-0.01,0.01-0.03,0.06-0.04,0.07c-0.01,0.01-0.01,0.03-0.02,0.04   c-0.07,0.11-0.02,0.18-0.16,0.19c-0.39,0.04-0.41-0.5-0.51-0.61c-0.34-0.36-0.49-0.4-0.59-0.94l-0.03-0.13   c-0.02-0.31-0.99-0.52-1.16-0.69l-0.51-0.45c-0.13-0.1-0.2-0.04-0.37,0.02c-0.07,0.5,0.11,0.3,0.37,0.72   c0.19,0.31,0.15,0.21,0.45,0.36c0.02,0.01,0.04,0.02,0.05,0.02l0.48,0.26c0.25,0.12,0.3,0.11,0.42,0.33   c-0.32-0.05-0.3-0.21-0.5-0.12c-0.27,0.13-0.05,0.19,0.04,0.41c-0.36,0.26-0.15,0.36-0.64,0.38l-0.09,0.4   c-0.2,0-0.27-0.05-0.48-0.15c-0.32-0.15-0.25-0.05-0.37-0.29c0.52-0.06,0.76,0.13,1.21-0.19c0.02-0.51-0.47-0.72-0.89-0.89   c-0.65-0.27-0.71-0.75-0.88-0.85c-0.46-0.15-0.64,0.15-1.02,0.27c-0.34,0.1-0.44-0.17-0.98,0c-0.16,0.3,0.05,0.28-0.24,0.47   c-0.11,0.08-0.37,0.14-0.53,0.21c-0.72,0.34-0.52,0.5-0.63,0.74c-0.05,0.11-0.64,0.55-0.8,0.62c-0.19,0.08-0.4-0.01-1.18,0.27   c-0.21-0.2-0.09-0.07-0.17-0.36l-0.64,0c0.35-0.63-0.13-0.31,0.38-0.93c0.24-0.28,0.33-0.58,0.41-0.99   c0.54-0.18,0.28-0.18,0.9-0.13c0.38,0.03,0.82,0.1,1.18,0c0.16-0.19,0.4-0.51,0.36-0.79c-0.06-0.43-0.43-0.34-0.51-0.63   c0.29-0.09,0.38-0.02,0.59-0.06c0.45-0.08,0.07-0.13,0.46-0.2c0.6-0.11,0.5-0.22,0.94-0.41c0.27-0.12,0.69-0.15,0.95-0.37   c0.5-0.43,0.35-0.13,0.9-0.35c0.16-0.68-0.22-0.58,0.6-0.81c0,0.02,0.04,0.08,0.01,0.18c-0.04,0.16,0.06-0.03-0.08,0.13   c-0.13,0.16-0.19,0.09-0.18,0.35c0.31,0.12,0.22,0.09,0.58,0.04c0.44-0.05,0.14,0.14,0.64,0.05c0.31-0.06,0.38-0.17,0.71-0.13   c0.4,0.04,0.27-0.05,0.72-0.07c0-0.36-0.11-0.15,0.05-0.54c0.5-0.08,0.55,0.32,0.64-0.09c-0.26-0.24-0.19-0.08-0.53-0.11   c0.39-0.21,1.04-0.2,1.55-0.3c-0.68-0.17-1.29,0.1-1.56-0.07c-0.25-0.15-0.07-0.08-0.19-0.4c0.19-0.18,0.57-0.25,0.64-0.48   c-0.67-0.14-0.45,0.04-0.79,0.25c-0.33,0.2-0.41,0.06-0.64,0.45c0.13,0.25,0.09,0.03,0.31,0.29c-0.21,0.23-0.22,0.09-0.38,0.25   c-0.34,0.35,0.2,0.42-1.04,0.65c-0.38,0.07,0.11,0.11-0.37,0.05c0.09-0.25,0.1-0.08,0.38-0.29c-0.04-0.09-0.1-0.24-0.15-0.32   c-0.01-0.01-0.09-0.14-0.1-0.14l-0.08-0.09c-0.5,0.13-0.51,0.35-1.04,0.12c0.21-0.78,0.17-0.63,1.1-0.9   c0.55-0.16,0.91-0.53,1.46-0.76c0.86-0.36,2.4-0.13,3.34,0.12c0.09,0.02,0.13,0.03,0.21,0.09c0.17,0.12,0.01-0.08,0.09,0.12   c-0.35,0.11-0.73-0.04-1.09-0.04c0.31,0.14,0.44,0.35,0.87,0.44c0.05-0.17,0.04,0.06-0.04-0.11c-0.11-0.23-0.09,0.13-0.04-0.06   l0.44,0.06c0.05-0.21-0.06-0.25,0.39-0.24l-0.12-0.16c-0.08-0.19-0.05,0.01,0.02-0.12c0.2,0.13,0.11,0.23,0.41,0.16   c0.2-0.04,0.12-0.13,0.47-0.14c0.38-0.02,0.84-0.08,1.13-0.06L31.3,4.58c0.22,0.02,0.34,0.04,0.48-0.07   c1.99,0.55,3.63,1.24,5.24,2.18c0.93,0.54,1.93,1.25,2.74,1.91c2.17,1.83,3.33,3.1,4.77,5.55c0.74,1.26,1.93,3.65,2.23,5.3   c-0.18-0.07-0.09-0.01-0.19-0.18l-0.53-1.32c-0.12-0.25-0.11-0.27-0.25-0.33l-0.1,0c-0.27,0.13-0.08,0.09-0.09,0.71l-0.08,1.39   c-0.21,1.14,0.03,0.65,0.15,2c0.04,0.48,0.01,0.99-0.16,1.36c-0.13-0.1,0,0.09-0.15-0.16c-0.03-0.05-0.04-0.09-0.07-0.16   c-0.26-0.72-0.45-1.51-0.88-2.37c-0.35-0.72-0.53-1.32-0.76-2.06c-0.15-0.46-0.22-0.1-0.51-0.08l-0.46-0.49   c0.03-0.17,0.03-0.02,0.17-0.25c-0.45-0.06-0.28-0.15-0.61-0.36c-0.28-0.16-0.2-0.29-0.58-0.61c-0.61,0.12-0.95,0.18-1.55,0.09   c-1.25-0.18-0.52-0.2-1.11-0.62c-0.39,0.11,0.13,0.09-0.4,0.19c-0.38,0.07-0.75-0.25-1.09-0.43c-0.52-0.27-0.46-0.98-1.24-0.82   c-0.09,0.18-0.01,0.08-0.13,0.17c0.1,0.3,0.46,0.71,0.69,0.88c0.49,0.37,0.25,0.56,0.66,0.83c-0.07-0.16-0.08-0.24,0.03-0.39   c0.52,0.33-0.3,0.99,1.09,0.69l0.38-0.76c0.19,0.33,0.12,0.65,0.59,0.86c1.21,0.54,0.78,0.83,0.56,1.38   c-0.04,0.09-0.03-0.07-0.05,0.17c-0.01,0.14,0.03,0.28,0.05,0.42c-0.33,0.1-0.08-0.03-0.22,0.14c-0.37,0.47-0.32,0.35-0.41,0.7   c-0.25-0.01-0.42,0.04-0.59,0.15c-0.64,0.4,0.6,0.05-1.62,1.26c-0.26,0.14-0.18,0.12-0.46,0.2c-0.45,0.12-0.54,0.46-0.97,0.31   c-0.2-0.18-0.26-0.58-0.4-0.94c-0.18-0.47,0.02-0.53-0.3-0.96c-0.21-0.27-0.35-0.36-0.54-0.71c-0.27-0.48-0.24-0.3-0.63-0.62   c-0.37-0.31-0.23-0.51-0.41-0.92c-0.24-0.54-0.28-0.34-0.61-0.64l-1.07-1.42c-0.41-0.03-0.31,0.15-0.7-0.1   c0.46,0.91,0.79,1.22,0.98,1.57c0.09,0.15,0.01-0.02,0.08,0.22c0.2,0.69,0.35,0.3,0.62,0.78c0.18,0.33,0.13,0.67,0.28,1.04   c0.16,0.39,0.47,0.32,0.68,0.73c0.39,0.74-0.12,0.55,0.9,1.16c0.23,0.14,0.17,0.14,0.36,0.31c0.25,0.22,0.48,0.46,0.68,0.64   c-0.01,0.23-0.01,0.1-0.06,0.22c-0.01,0.02-0.04,0.14-0.06,0.1c0-0.01-0.02,0.03-0.03,0.05c0.33,0.15,0.23,0.27,0.61,0.48   c0.31-0.05,0.29-0.11,0.6-0.18c0.36-0.08,0.25-0.09,0.58-0.18c1.19-0.32,0.7-0.26,1.17-0.4c-0.04,0.58,0.06,0.85-0.17,1.43   c-0.27,0.68-0.95,2.75-1.77,2.92c-0.08,0.14-0.68,0.68-1.11,1.27c-0.85,1.17-0.51,0.36-1.23,1.8c-0.43,0.87,0.03,0.46,0.04,0.94   c0,0.08-0.06,0.41-0.04,0.61c0.04,0.73,0.39,0.56,0.32,0.96c-0.04,0.45,0.03,1.34-0.08,1.64c-0.29,0.76-0.91,0.64-1.74,1.42   c-0.31,0.29-0.67,0.32-0.82,0.78c0.16,0.15,0.01-0.04,0.11,0.15c0,0.01,0.06,0.16,0.06,0.17c0.36,1.22-0.69,1.26-1.14,1.54   c-0.02,0.96-0.42,0.94-0.88,1.47c-0.34,0.39-0.92,0.8-1.35,1.01c-0.77,0.38-1.44,0.19-1.91,0.3c-0.62,0.15-1,0.24-1.31-0.19   c-0.24-0.33-0.1-0.11-0.06-0.31c0.06-0.36-0.15-0.38-0.35-0.73c-0.49-0.87-0.99-0.74-1.16-2.38c-0.04-0.41-0.26-0.49-0.43-0.76   c-0.16-0.25-0.28-0.51-0.44-0.73c-0.3-0.39-0.34-0.26-0.34-0.87C22.85,34.12,22.99,33.99,23.03,33.51L23.03,33.51z M20.68,6.82   c-0.02,0.18-0.04,0.34,0.02,0.47l0.16,0.32c-0.16,0.11-0.26,0.06-0.44,0.22l-0.37,0.3l0.39,0.07c-0.41,0.1-0.38,0.2-0.69,0.3   c0.22,0.01,1.52-0.12,1.7-0.29l0.27-0.27c-0.05-0.17-0.16-0.1-0.28-0.42c-0.07-0.18-0.07-0.33-0.23-0.43   c0.12-0.11,0.24-0.2,0.38-0.29l-0.38-0.17C21.03,6.59,20.95,6.75,20.68,6.82L20.68,6.82z M30.52,9.68c0.34,0.19,0.3,0.07,0.54,0.17   c-0.19,0.08-0.52,0.19-0.73,0.24c0,0-0.26-0.26-0.26-0.27c-0.18-0.23,0,0.12-0.04-0.09c0-0.01,0-0.06,0-0.07c0-0.01,0-0.03,0-0.04   c0-0.01,0.01-0.03,0-0.04c-0.47,0-0.54-0.37-0.9,0.16l-0.26,0.42c-0.01,0.02-0.03,0.08-0.04,0.1c-0.12,0.25-0.35,0.36,0.08,0.71   l0.21,0.16l-0.59,0.07c0.12,0.11,0,0.07,0.19,0.11c0.44,0.09,0.44-0.1,0.46-0.12c0-0.01,0.01-0.03,0.02-0.04   c0-0.01,0.01-0.03,0.01-0.04c0-0.01,0-0.03,0.01-0.04c1.12,0.08,0.89-0.48,1.82-0.18c0.45,0.14,1.24,0.46,1.78,0.13   c0.09-0.49-0.3-0.45-0.65-0.66c-0.32-0.19-0.62-0.33-0.99-0.45l0.11-0.14c0.15-0.29-0.03-0.19,0.14-0.37   c0.22-0.23-0.02,0.13,0.13-0.11l-0.8,0.16C30.38,9.66,30.66,9.46,30.52,9.68L30.52,9.68z M32.78,8.93c0.36,0.11,0.73,0.41,0.8,0.43   l-0.39,0.21c0.41,0.27,0.47,0.57,1,0.91l0.83,0.64c0.06,0.06,0.06,0.05,0.12,0.11c0.13,0.13,0.07,0.01,0.12,0.17   c-0.34,0.17-0.25-0.13-0.51,0c0.14,0.19,0.17-0.02,0.42,0.38c0.35,0.57,0.85,0.98,1.66,0.77l-0.05-0.32   c-0.12-0.27-0.06-0.08-0.15-0.39c-0.05-0.18,0.06-0.19-0.29-0.35l-0.24-0.1c0.13-0.17-0.05,0.02,0.13-0.1l0.21-0.12   c-0.52-0.57-0.66-0.29-0.7-0.27c-0.12-0.32,0-0.14-0.41-0.47l-0.54-0.38c0.36,0.05,0.38,0.03,0.73,0.12l0.22-0.33   C35.53,9.38,35.09,9.18,34.65,9c-0.29-0.12-0.19-0.06-0.34-0.28c-0.1,0.05-0.27,0.12-0.4,0.16C33.01,9.17,33.25,8.9,32.78,8.93z"></path>
	<path class="st3" d="M15.81,28.31c-4.41,0-6.62,0-6.62,0l0.35,0.95l6.68,0l4.25-8.52l1.83,8.75l3.45-0.02l8.07-17.26l1.57,0.01   l-0.11-0.71c-0.96,0.05-1.73,0.02-1.73,0.02c-5.73,11.1-8.3,16.71-8.3,16.71c-2.03,0.1-3.04,0.15-3.04,0.15   c-1.32-5.83-1.98-8.74-1.98-8.74C17.28,25.42,15.81,28.31,15.81,28.31z"></path>
	<path class="st4" d="M15.81,28.37c-4.41,0-6.62-0.06-6.62-0.06c4.71-8.62,7.07-12.93,7.07-12.93c3.75,0,5.63,0,5.63,0   c1.32,5.47,1.98,8.21,1.98,8.21c4.36-8.11,6.54-12.17,6.54-12.17c-1.22,0.05-1.82-0.01-1.82-0.01c3.85-3.7,5.78-5.46,5.78-5.46   c0.61,3.7,0.91,5.55,0.91,5.55c-0.96,0.05-1.73,0.02-1.73,0.02l-8.3,16.91l-3.04,0.01c-1.32-5.83-1.98-8.8-1.98-8.8   C17.28,25.42,15.81,28.37,15.81,28.37z"></path>
	<path class="st3" d="M30.41,11.43c-1.22-0.01-1.82-0.01-1.82-0.01c0,0.51,0,0.77,0,0.77c0.94,0.01,1.41,0.01,1.41,0.01   C30.27,11.69,30.41,11.43,30.41,11.43z"></path>
	<path class="st4" d="M20.93,10.85l-0.27-1.9C19.62,10.31,19.1,11,19.1,11c-1.77,0-2.66,0-2.66,0c1.24,0.84,1.86,1.25,1.86,1.25   c-1.09,1.62-1.63,2.43-1.63,2.43c1.93-1.12,2.89-1.67,2.89-1.67c1.47,1.19,2.21,1.79,2.21,1.79c-0.54-2.09-0.48-1.96-0.67-2.59   l2.57-1.37C21.92,10.85,20.93,10.85,20.93,10.85z"></path>
	<path class="st3" d="M16.67,14.69c1.93-1.12,2.89-1.67,2.89-1.67c1.47,1.19,2.21,1.79,2.21,1.79c-0.54-2.09-0.48-1.96-0.67-2.59   l2.57-1.37l-2.26,1.5l0.36,2.45l-1.97-1.6L16.67,14.69z"></path>
	<polygon class="st3" points="18.28,32.15 18.28,30.44 18.76,30.89 18.76,32.6 14.27,32.6 14.27,34.43 17.71,34.43 18.19,34.89    18.19,36.25 14.27,36.25 14.27,40.51 12.37,40.51 11.89,40.06 13.79,40.06 13.79,35.8 17.71,35.8 17.71,34.43 13.79,34.43    13.79,32.15  "></polygon>
	<polygon class="st4" points="11.89,30.44 13.79,30.44 18.28,30.44 18.28,32.15 13.79,32.15 13.79,34.43 17.71,34.43 17.71,35.8    13.79,35.8 13.79,40.06 11.89,40.06 11.89,35.8 11.89,34.43 11.89,32.15  "></polygon>
	<polygon class="st3" points="26.78,30.51 27.37,30.92 27.37,32.63 22.48,32.63 22.48,34.51 26.41,34.51 27,34.91 27,36.28    27,36.55 22.48,36.55 22.48,38.42 26.78,38.42 27.37,38.83 27.37,40.54 22.48,40.54 22.48,40.54 20.58,40.54 19.99,40.13    21.89,38.42 21.89,36.14 26.41,36.14 26.41,34.51 21.89,34.51 21.89,32.23 26.78,32.23  "></polygon>
	<polygon class="st4" points="21.89,30.51 26.78,30.51 26.78,32.23 21.89,32.23 21.89,34.51 26.41,34.51 26.41,34.77 26.41,35.87    26.41,36.14 21.89,36.14 21.89,38.42 26.78,38.42 26.78,40.13 21.89,40.13 21.89,40.13 19.99,40.13 19.99,40.13 19.99,38.42    19.99,36.14 19.99,35.87 19.99,34.51 19.99,32.23 19.99,30.51 19.99,30.51 21.89,30.51  "></polygon>
	<path class="st3" d="M35.67,33.66c-1.27-0.03-1.93,0.01-1.93,0.01l0.01-0.44c0.01-0.54-0.46-0.85-1.48-0.86   c-1.39,0.08-1.76,0.73-1.18,1.67c0.29,0.47,1.49,0.62,3.12,0.91c1.55,0.7,2.14,1.31,2.19,2.66c0.05,1.73-0.59,2.35-1.94,2.73   c-1.81,0.51-3.31,0.23-4.58-0.64c-0.94-0.87-1.51-2.08-1.44-2.76l1.65,0l0.34,0.4c0.05,0.78,0.79,1.35,1.28,1.31   c1.24,0.17,1.65-0.15,2.25-0.66c0.44-0.63,0.2-1.18-0.36-1.27c-2.53-0.34-4.05-1.25-4.54-2.72c-0.15-1.32,0.34-2.26,1.48-2.83   c1.31-0.41,2.57-0.41,3.8,0C35.49,31.68,35.72,32.51,35.67,33.66z"></path>
	<path class="st4" d="M35.65,33.27c-1.27-0.03-1.9-0.04-1.9-0.04c0.09-0.83-0.52-1.25-1.82-1.25c-1.39,0.08-1.63,1-1.18,1.67   c0.48,0.71,1.54,0.42,3.12,0.91c1.62,0.5,2.21,1.58,2.13,2.66c-0.27,3.5-4.41,3.74-6.46,2.09c-0.94-0.75-1.16-1.69-1.1-2.36   c1.1,0,1.65,0,1.65,0c0.05,0.78,0.48,1.33,1.29,1.65c1.14,0.22,2.11,0.1,2.59-0.61c0.53-0.79,0.21-1.51-0.7-1.67   c-2.52-0.45-4.05-1.25-4.54-2.72c-0.15-1.32,0.34-2.26,1.48-2.83c1.31-0.41,2.57-0.41,3.8,0C35.15,31.28,35.7,32.11,35.65,33.27z"></path>
</g>
</svg>