<svg xmlns="http://www.w3.org/2000/svg" xmlns:xlink="http://www.w3.org/1999/xlink" id="&#x421;&#x43B;&#x43E;&#x439;_1" x="0px" y="0px" viewBox="0 0 200 60" style="enable-background:new 0 0 200 60;" xml:space="preserve">
<style type="text/css">
	.st0{fill-rule:evenodd;clip-rule:evenodd;fill:url(#SVGID_1_);}
	.st1{opacity:0.3;fill-rule:evenodd;clip-rule:evenodd;fill:#0A1744;}
	.st2{opacity:0.15;fill-rule:evenodd;clip-rule:evenodd;fill:#0A1744;}
	.st3{fill-rule:evenodd;clip-rule:evenodd;fill:url(#SVGID_2_);}
	.st4{opacity:0.3;fill-rule:evenodd;clip-rule:evenodd;fill:#B6FFFF;}
	.st5{opacity:0.2;fill-rule:evenodd;clip-rule:evenodd;fill:#CD001A;}
	.st6{fill-rule:evenodd;clip-rule:evenodd;fill:url(#SVGID_3_);}
	.st7{opacity:0.3;fill-rule:evenodd;clip-rule:evenodd;}
	.st8{opacity:0.15;fill-rule:evenodd;clip-rule:evenodd;}
	.st9{fill-rule:evenodd;clip-rule:evenodd;fill:url(#SVGID_4_);}
	.st10{opacity:0.6;fill-rule:evenodd;clip-rule:evenodd;fill:#FFFFFF;}
	.st11{opacity:0.2;fill-rule:evenodd;clip-rule:evenodd;fill:#FFFFFF;}
	.st12{fill:#A1AAB2;}
	.st13{fill:#CD001A;}
</style>
<g>
	<linearGradient id="SVGID_1_" gradientUnits="userSpaceOnUse" x1="13.2708" y1="26.7339" x2="28.5798" y2="36.1685">
		<stop offset="1.118836e-07" style="stop-color:#A50034"></stop>
		<stop offset="1" style="stop-color:#CD001A"></stop>
	</linearGradient>
	<path class="st0" d="M23.75,31.44c-1-1.73-1.36-3.67-1.14-5.53l-3.39,1.59c-2.68,1.26-3.39,5.11-1.91,7.67   c1.33,2.3,4.51,3.02,6.92,2.13c0.27-0.12,0.53-0.26,0.79-0.41l2.94-1.7C26.26,34.45,24.76,33.18,23.75,31.44z"></path>
	<path class="st1" d="M19,35.41c-1.19-2.05-0.48-4.7,1.58-5.89l2.08-1.2c-0.12-0.8-0.14-1.62-0.04-2.42l-3.39,1.59   c-2.68,1.26-3.39,5.11-1.91,7.67c1.31,2.27,4.43,3.01,6.83,2.16C22.24,37.99,20.05,37.23,19,35.41z"></path>
	<path class="st2" d="M17.32,35.17c1.03,1.78,3.18,2.62,5.21,2.49c-1.71,0.04-3.4-0.84-4.32-2.44c-1.33-2.31-0.57-5.26,1.69-6.57   l2.66-1.54c-0.01-0.4,0.01-0.81,0.06-1.21l-3.39,1.59C16.55,28.76,15.84,32.61,17.32,35.17z"></path>
	<linearGradient id="SVGID_2_" gradientUnits="userSpaceOnUse" x1="7.5449" y1="40.4002" x2="39.9432" y2="11.4729">
		<stop offset="0" style="stop-color:#A50034"></stop>
		<stop offset="1" style="stop-color:#CD001A"></stop>
	</linearGradient>
	<path class="st3" d="M16.02,21.28c-4.29,2.48-5.78,8.02-3.3,12.31c2.33,4.03,7.36,5.59,11.52,3.71c-2.41,0.9-5.21-0.05-6.53-2.35   c-1.48-2.56-0.59-5.86,1.97-7.34l9.22-5.32c3.22-1.86,4.49-4.93,4.49-7.72l0-3.3L16.02,21.28z"></path>
	<path class="st4" d="M28.8,22.12l-8.25,4.76l-0.97,0.56c-2.65,1.53-3.57,4.95-2.04,7.6c0.57,0.98,1.66,2.07,3.2,2.48   c0.88,0.24,1.91,0.26,3.07-0.09c0.03-0.01,0.06-0.02,0.09-0.03c-2.33,0.69-4.93-0.27-6.2-2.46c-1.48-2.56-0.59-5.86,1.97-7.34   l2.94-1.7l6.28-3.63c3.22-1.86,4.49-4.93,4.49-7.72v-0.09l0,0.04C33.38,17.71,31.57,20.52,28.8,22.12z"></path>
	<path class="st5" d="M27.87,18.59l-10.31,5.95c-3.46,2-4.66,6.46-2.66,9.92c1.73,2.99,5.31,4.29,8.48,3.29c0,0,0,0,0,0   c0.29-0.1,0.57-0.21,0.86-0.34c-0.03,0.01-0.06,0.02-0.09,0.03c-0.08,0.03-0.16,0.06-0.25,0.08c-0.03,0.01-0.06,0.02-0.09,0.03   c-1.16,0.34-2.19,0.32-3.07,0.09c0,0,0,0,0,0c0,0,0,0,0,0c-1.54-0.42-2.63-1.5-3.2-2.48c-1.53-2.65-0.61-6.07,2.04-7.6L20.55,27   l8.25-4.76c2.77-1.6,4.58-4.41,4.58-7.61l0-0.04l0-3.21C32.16,15.62,30.49,17.08,27.87,18.59z"></path>
	<linearGradient id="SVGID_3_" gradientUnits="userSpaceOnUse" x1="38.5589" y1="33.4677" x2="21.2023" y2="26.97">
		<stop offset="0" style="stop-color:#6C7A89"></stop>
		<stop offset="1" style="stop-color:#FFFFFF"></stop>
	</linearGradient>
	<path class="st6" d="M30.48,25.86c-0.27,0.12-0.53,0.26-0.79,0.41l-2.94,1.7c1.72,0.74,3.22,2.02,4.22,3.75   c1,1.73,1.36,3.67,1.14,5.53l3.39-1.59c2.68-1.26,3.39-5.11,1.91-7.67C36.08,25.68,32.89,24.96,30.48,25.86z"></path>
	<path class="st7" d="M30.57,25.82c1.91-0.66,4.1,0.1,5.15,1.92c1.19,2.05,0.48,4.7-1.58,5.89l-2.08,1.2   c0.12,0.8,0.14,1.62,0.04,2.42l3.39-1.59c2.68-1.26,3.39-5.11,1.91-7.67C36.09,25.71,32.97,24.98,30.57,25.82z"></path>
	<path class="st8" d="M32.19,25.5c1.71-0.04,3.4,0.84,4.32,2.44c1.33,2.31,0.57,5.26-1.69,6.57l-2.66,1.54   c0.01,0.4-0.01,0.81-0.06,1.21l3.39-1.59c2.68-1.26,3.39-5.11,1.91-7.67C36.37,26.2,34.23,25.36,32.19,25.5z"></path>
	<linearGradient id="SVGID_4_" gradientUnits="userSpaceOnUse" x1="42.7137" y1="24.6418" x2="15.5668" y2="56.8622">
		<stop offset="0" style="stop-color:#6C7A89"></stop>
		<stop offset="1" style="stop-color:#FFFFFF"></stop>
	</linearGradient>
	<path class="st9" d="M30.48,25.86c2.41-0.9,5.21,0.05,6.53,2.35c1.48,2.56,0.59,5.86-1.97,7.34l-9.22,5.33   c-3.22,1.86-4.49,4.93-4.49,7.72l0,3.3L38.7,41.87C43,39.4,44.48,33.86,42,29.56C39.67,25.53,34.64,23.98,30.48,25.86z"></path>
	<path class="st10" d="M33.98,25.63c-0.88-0.24-1.91-0.26-3.07,0.09c-0.03,0.01-0.06,0.02-0.09,0.03c2.33-0.69,4.93,0.27,6.2,2.46   c1.48,2.56,0.59,5.86-1.97,7.34l-2.94,1.7l-6.28,3.63c-3.22,1.86-4.49,4.93-4.49,7.72v0.09l0-0.04c0-3.2,1.81-6.01,4.58-7.61   l8.25-4.76l0.97-0.56c2.65-1.53,3.57-4.95,2.04-7.6C36.62,27.13,35.53,26.04,33.98,25.63z"></path>
	<path class="st11" d="M31.34,25.52C31.34,25.52,31.34,25.52,31.34,25.52c-0.29,0.1-0.58,0.21-0.86,0.34   c0.03-0.01,0.06-0.02,0.09-0.03c0.08-0.03,0.16-0.06,0.25-0.08c0.03-0.01,0.06-0.02,0.09-0.03c1.16-0.34,2.19-0.32,3.07-0.09   c0,0,0,0,0,0c0,0,0,0,0,0c1.54,0.42,2.63,1.5,3.2,2.48c1.53,2.65,0.61,6.07-2.04,7.6l-0.97,0.56l-8.25,4.76   c-2.77,1.6-4.58,4.41-4.58,7.61l0,0.04l0,3.21c1.22-4.24,2.89-5.69,5.51-7.21l10.31-5.95c3.46-2,4.66-6.46,2.66-9.92   C38.09,25.82,34.52,24.52,31.34,25.52z"></path>
</g>
<g>
	<path class="st12" d="M62.51,33.77c0-0.55-0.2-0.98-0.59-1.27c-0.39-0.3-1.09-0.61-2.11-0.94c-1.02-0.33-1.82-0.65-2.41-0.97   c-1.61-0.87-2.42-2.05-2.42-3.53c0-0.77,0.22-1.45,0.65-2.06s1.05-1.07,1.87-1.41s1.72-0.51,2.73-0.51c1.02,0,1.92,0.18,2.71,0.55   s1.41,0.89,1.85,1.56s0.66,1.43,0.66,2.29h-2.93c0-0.65-0.21-1.16-0.62-1.52s-0.99-0.54-1.73-0.54c-0.72,0-1.27,0.15-1.67,0.45   s-0.6,0.7-0.6,1.2c0,0.46,0.23,0.85,0.7,1.16s1.15,0.61,2.06,0.88c1.67,0.5,2.88,1.12,3.64,1.87s1.14,1.67,1.14,2.77   c0,1.23-0.47,2.2-1.4,2.9c-0.93,0.7-2.18,1.05-3.76,1.05c-1.09,0-2.09-0.2-2.99-0.6s-1.58-0.95-2.06-1.65   c-0.47-0.7-0.71-1.5-0.71-2.42h2.94c0,1.57,0.94,2.35,2.81,2.35c0.7,0,1.24-0.14,1.63-0.42S62.51,34.28,62.51,33.77z"></path>
	<path class="st12" d="M71.26,23.28l3.65,10.31l3.63-10.31h3.85V37.5h-2.94v-3.89l0.29-6.71l-3.84,10.6h-2.01l-3.83-10.59l0.29,6.7   v3.89h-2.93V23.28H71.26z"></path>
	<path class="st12" d="M92.98,34.57h-5.14l-0.98,2.93h-3.12l5.29-14.22h2.71l5.32,14.22h-3.12L92.98,34.57z M88.63,32.2h3.55   l-1.79-5.32L88.63,32.2z"></path>
	<path class="st12" d="M103.67,32.29h-2.33v5.21h-2.93V23.28h5.28c1.68,0,2.98,0.37,3.89,1.12s1.37,1.81,1.37,3.17   c0,0.97-0.21,1.78-0.63,2.43s-1.06,1.16-1.91,1.55l3.08,5.81v0.14h-3.14L103.67,32.29z M101.33,29.92h2.36   c0.74,0,1.31-0.19,1.71-0.56c0.4-0.37,0.61-0.89,0.61-1.55c0-0.67-0.19-1.2-0.57-1.58s-0.96-0.58-1.75-0.58h-2.35V29.92z"></path>
	<path class="st12" d="M121.38,25.65h-4.36V37.5h-2.93V25.65h-4.3v-2.37h11.58V25.65z"></path>
	<path class="st13" d="M134.27,33.4l1.91-10.12h2.92l-3.15,14.22H133l-2.31-9.51l-2.31,9.51h-2.95l-3.15-14.22h2.92l1.92,10.1   l2.34-10.1h2.48L134.27,33.4z"></path>
	<path class="st13" d="M149.25,31.34h-5.62v3.81h6.6v2.35h-9.53V23.28h9.51v2.37h-6.58v3.39h5.62V31.34z"></path>
	<path class="st13" d="M154.87,35.15h6.22v2.35h-9.15V23.28h2.93V35.15z"></path>
	<path class="st13" d="M165.7,35.15h6.22v2.35h-9.15V23.28h2.93V35.15z"></path>
	<path class="st13" d="M180.97,33.77c0-0.55-0.2-0.98-0.59-1.27c-0.39-0.3-1.09-0.61-2.11-0.94c-1.02-0.33-1.82-0.65-2.41-0.97   c-1.61-0.87-2.42-2.05-2.42-3.53c0-0.77,0.22-1.45,0.65-2.06s1.05-1.07,1.87-1.41s1.72-0.51,2.73-0.51c1.02,0,1.92,0.18,2.71,0.55   s1.41,0.89,1.85,1.56s0.66,1.43,0.66,2.29h-2.93c0-0.65-0.21-1.16-0.62-1.52s-0.99-0.54-1.73-0.54c-0.72,0-1.27,0.15-1.67,0.45   s-0.6,0.7-0.6,1.2c0,0.46,0.23,0.85,0.7,1.16s1.15,0.61,2.06,0.88c1.67,0.5,2.88,1.12,3.64,1.87s1.14,1.67,1.14,2.77   c0,1.23-0.47,2.2-1.4,2.9c-0.93,0.7-2.18,1.05-3.76,1.05c-1.09,0-2.09-0.2-2.99-0.6s-1.58-0.95-2.06-1.65   c-0.47-0.7-0.71-1.5-0.71-2.42h2.94c0,1.57,0.94,2.35,2.81,2.35c0.7,0,1.24-0.14,1.63-0.42S180.97,34.28,180.97,33.77z"></path>
</g>
</svg>